<?xml version="1.0" standalone="no"?><!DOCTYPE svg PUBLIC "-//W3C//DTD SVG 1.1//EN" "http://www.w3.org/Graphics/SVG/1.1/DTD/svg11.dtd"><svg t="1740380145848" class="icon" viewBox="0 0 1024 1024" version="1.1" xmlns="http://www.w3.org/2000/svg" p-id="2439" xmlns:xlink="http://www.w3.org/1999/xlink" width="200" height="200"><path d="M998.4 455.2c-3.2-0.8-70.4-24-131.2-13.6-5.6-30.4-21.6-80.8-72-100l-5.6-2.4-5.6 1.6c-2.4 0.8-24 4.8-40 29.6-19.2 28.8-23.2 72-12 128.8h-672c-11.2 0-41.6-0.8-44 24.8-0.8 6.4-1.6 15.2-1.6 17.6-0.8 4-0.8 4.8-0.8 16 0 298.4 216 332.8 378.4 332.8 317.6 0 432.8-170.4 473.6-316 34.4 6.4 120.8 11.2 146.4-96l4-17.6-17.6-5.6z m-130.4 79.2c-17.6-4-36 7.2-40.8 25.6-64 240-272.8 290.4-436 290.4-234.4 0-338.4-90.4-338.4-292.8v-8c0.8-2.4 0.8-4.8 1.6-11.2h687.2c9.6 0 18.4-4 24-12 6.4-7.2 8-17.6 6.4-27.2-16.8-77.6 0-110.4 14.4-119.2 41.6 21.6 42.4 84 42.4 85.6v28l26.4-9.6c36-12.8 84-4.8 110.4 1.6-19.2 54.4-63.2 56.8-97.6 48.8zM71.2 382.4h85.6v85.6H71.2z" fill="#030000" p-id="2440"></path><path d="M196 382.4h85.6v85.6H196zM321.6 382.4h85.6v85.6H321.6zM446.4 382.4h85.6v85.6H446.4zM196 252h85.6v85.6H196zM321.6 252h85.6v85.6H321.6zM446.4 252h85.6v85.6H446.4zM446.4 121.6h85.6v85.6H446.4zM572 382.4h85.6v85.6H572zM228.8 607.2c-28.8 0-52 23.2-52 52s23.2 52 52 52 52-23.2 52-52-23.2-52-52-52z m0 64c-6.4 0-12-5.6-12-12s5.6-12 12-12 12 5.6 12 12-5.6 12-12 12z" fill="#030000" p-id="2441"></path></svg>